<svg id="Layer_1" data-name="Layer 1" xmlns="http://www.w3.org/2000/svg" viewBox="0 0 264.38 179.36"><path d="M117.63,89c3.58-5.64,6.93-10.63,9.88-15.86.57-1-.07-3.14-.81-4.36-4.37-7.18-8.94-14.24-13.42-21.35-.56-.88-1-1.82-1.89-3.38,4.83,0,9.07-.24,13.25.14,1.25.11,2.64,1.75,3.47,3,6.59,10.17,13.06,20.42,19.57,30.64.51.79,1.09,1.54,2,2.89,1.12-1.57,2.08-2.8,2.91-4.11,6.22-9.76,12.48-19.48,18.56-29.33,1.47-2.38,3.06-3.55,6-3.35,3.38.25,6.79.06,11.24.06l-38.6,60.83c-4.65-7.23-8.93-13.86-13.61-21.12-6.3,9.86-12.27,19.18-18.65,29.17L73.84,44.11c5.23,0,9.56-.17,13.86.12,1,.07,2.15,1.53,2.83,2.6q12.06,18.77,24,37.62C115.39,85.81,116.33,87.11,117.63,89Z"/><path d="M81.59,136.13l7.68-15h5.9L83.41,141.27H77.48l-2.14-15.65-9.27,15.65H60.18L57.6,121.15H63L64.41,136l8.47-14.83h6.34Z"/><path d="M99,141.27H93.58l4.64-20.12h5.42Z"/><path d="M114.8,121.15,110.92,138h9.43l-.76,3.3H104.75l4.63-20.12Z"/><path d="M133.37,121.15,129.49,138h9.42l-.75,3.3H123.32L128,121.15Z"/><path d="M147.5,141.27h-5.42l4.63-20.12h5.42Z"/><path d="M170.54,141.27l-8.83-13.48-3.13,13.48h-5.34l4.63-20.12h5.35l8.86,13.47,3.09-13.47h5.35l-4.64,20.12Z"/><path d="M197.34,120.78a29.71,29.71,0,0,1,4.79.37,19.65,19.65,0,0,1,4.31,1.17l-1.11,3.15a23.25,23.25,0,0,0-3.9-1,22.9,22.9,0,0,0-4-.36,13.47,13.47,0,0,0-4.26.61,9,9,0,0,0-3.11,1.74,7.17,7.17,0,0,0-1.91,2.67,8.62,8.62,0,0,0-.66,3.42,5.35,5.35,0,0,0,1.92,4.34c1.28,1.06,3.29,1.6,6,1.6.66,0,1.31,0,2-.09a10.08,10.08,0,0,0,1.64-.28l1.31-5.74h4.87l-1.86,8.12a23.85,23.85,0,0,1-4,.85,32.17,32.17,0,0,1-4.52.31,20.47,20.47,0,0,1-5.7-.7,11.76,11.76,0,0,1-4-1.91,7.72,7.72,0,0,1-2.36-2.89,8.44,8.44,0,0,1-.77-3.63,10.75,10.75,0,0,1,1-4.56,10.55,10.55,0,0,1,2.91-3.73,14.36,14.36,0,0,1,4.77-2.5A21.31,21.31,0,0,1,197.34,120.78Z"/></svg>