<svg id="Layer_1" data-name="Layer 1" xmlns="http://www.w3.org/2000/svg" viewBox="0 0 264.38 179.36"><defs><style>.cls-1{fill:#fff;}</style></defs><path class="cls-1" d="M114,80.34c5-7.82,9.61-14.75,13.7-22,.79-1.39-.11-4.36-1.13-6.05-6.06-9.95-12.39-19.74-18.6-29.59-.78-1.22-1.42-2.53-2.62-4.7,6.7,0,12.57-.32,18.37.2,1.73.16,3.66,2.43,4.8,4.18,9.14,14.1,18.11,28.31,27.14,42.48.71,1.11,1.52,2.14,2.84,4,1.55-2.18,2.88-3.88,4-5.69,8.62-13.53,17.3-27,25.73-40.66,2-3.3,4.24-4.93,8.24-4.64,4.69.33,9.42.08,15.58.08C194,46.55,176.55,74,158.57,102.29L139.71,73l-25.86,40.44c-20.23-31.86-40-63-60.57-95.4,7.25,0,13.25-.23,19.22.17,1.4.1,3,2.12,3.92,3.61C87.57,39.18,98.61,56.6,109.69,74,110.89,75.86,112.19,77.68,114,80.34Z"/><path class="cls-1" d="M64,145.63l10.64-20.77h8.18l-16.3,27.89H58.32l-3-21.69L42.51,152.75H34.34l-3.57-27.89h7.46l2,20.56L52,124.86h8.79Z"/><path class="cls-1" d="M88.17,152.75H80.65l6.43-27.89h7.51Z"/><path class="cls-1" d="M110.07,124.86l-5.38,23.33h13.06l-1,4.56H96.13l6.42-27.89Z"/><path class="cls-1" d="M135.81,124.86l-5.38,23.33h13.06l-1,4.56H121.87l6.42-27.89Z"/><path class="cls-1" d="M155.4,152.75h-7.52l6.42-27.89h7.52Z"/><path class="cls-1" d="M187.34,152.75,175.1,134.07l-4.33,18.68h-7.41l6.42-27.89h7.41l12.29,18.68,4.28-18.68h7.41l-6.42,27.89Z"/><path class="cls-1" d="M224.49,124.35a41.87,41.87,0,0,1,6.64.51,27.12,27.12,0,0,1,6,1.63l-1.53,4.36a33.55,33.55,0,0,0-5.41-1.43,32.21,32.21,0,0,0-5.57-.5,18.56,18.56,0,0,0-5.9.86,12.4,12.4,0,0,0-4.31,2.4,10.1,10.1,0,0,0-2.66,3.7,12.17,12.17,0,0,0-.9,4.74,7.4,7.4,0,0,0,2.66,6q2.65,2.22,8.37,2.22a27,27,0,0,0,2.71-.13,13.14,13.14,0,0,0,2.28-.38l1.81-7.95h6.75l-2.58,11.25a33.19,33.19,0,0,1-5.48,1.18,46.35,46.35,0,0,1-6.26.42,28.8,28.8,0,0,1-7.9-1,16.39,16.39,0,0,1-5.55-2.66,10.71,10.71,0,0,1-3.26-4,11.67,11.67,0,0,1-1.07-5,14.82,14.82,0,0,1,1.37-6.32,14.62,14.62,0,0,1,4-5.17,19.78,19.78,0,0,1,6.62-3.48A29.8,29.8,0,0,1,224.49,124.35Z"/></svg>